Coordinates
version=1
nRows=16
nColumns=63
inDegrees=yes

Units are S.I. units (second, meters, Newtons, ...)
If the header above contains a line with 'inDegrees', this indicates whether rotational values are in degrees (yes) or radians (no).

endheader
time	pelvis_tilt	pelvis_list	pelvis_rotation	pelvis_tx	pelvis_ty	pelvis_tz	hip_flexion_r	hip_adduction_r	hip_rotation_r	knee_angle_r	knee_angle_r_beta	ankle_angle_r	subtalar_angle_r	mtp_angle_r	hip_flexion_l	hip_adduction_l	hip_rotation_l	knee_angle_l	knee_angle_l_beta	ankle_angle_l	subtalar_angle_l	mtp_angle_l	L5_S1_Flex_Ext	L5_S1_Lat_Bending	L5_S1_axial_rotation	L4_L5_Flex_Ext	L4_L5_Lat_Bending	L4_L5_axial_rotation	L3_L4_Flex_Ext	L3_L4_Lat_Bending	L3_L4_axial_rotation	L2_L3_Flex_Ext	L2_L3_Lat_Bending	L2_L3_axial_rotation	L1_L2_Flex_Ext	L1_L2_Lat_Bending	L1_L2_axial_rotation	L1_T12_Flex_Ext	L1_T12_Lat_Bending	L1_T12_axial_rotation	Abs_r3	Abs_r2	Abs_r1	Abs_t1	Abs_t2	neck_flexion	neck_bending	neck_rotation	arm_flex_r	arm_add_r	arm_rot_r	elbow_flex_r	pro_sup_r	wrist_flex_r	wrist_dev_r	arm_flex_l	arm_add_l	arm_rot_l	elbow_flex_l	pro_sup_l	wrist_flex_l	wrist_dev_l
2.916667	-3.744945	-5.985403	67.143624	0.203064	0.898995	0.537659	10.694951	2.795796	-2.458376	15.298422	0.267008	40.312672	16.778094	0.000000	5.390926	-1.025408	1.655021	7.378186	0.128774	37.216835	-4.347535	0.000000	0.020991	0.662123	2.681807	0.038982	0.880623	2.849420	0.034486	1.609885	2.849420	0.023990	1.609885	2.346581	0.019492	1.350201	2.178969	0.011994	1.025628	2.011356	0.149934	7.490064	14.915408	0.000000	0.000000	26.647229	-10.061903	-9.861904	-3.121493	-29.188504	-15.727711	101.110324	71.708038	-4.090016	16.193898	8.714649	-5.567112	161.885515	0.162868	1.064923	-68.230161	-23.095469
2.933333	-3.734337	-5.705341	66.821912	0.205387	0.896043	0.534862	10.973626	2.778703	-1.805263	16.698477	0.291443	41.685151	16.735838	0.000000	4.732777	-0.940477	3.328646	7.373220	0.128687	37.762966	-6.321352	0.000000	0.014019	0.612631	2.435731	0.026035	0.814799	2.587964	0.023032	1.489550	2.587964	0.016023	1.489550	2.131264	0.013018	1.249276	1.979031	0.008011	0.948965	1.826798	0.100138	6.930199	13.546803	0.000000	0.000000	26.303091	-8.217655	-9.655547	-4.408427	-27.742399	-14.572609	98.328821	73.751112	-4.902846	16.002808	9.033822	-5.163540	162.176445	0.176012	1.205025	-66.199403	-22.888989
2.950000	-3.712128	-5.440359	66.519404	0.207608	0.893027	0.532391	11.305462	2.794071	-1.189684	18.125570	0.316351	43.029028	16.677178	0.000000	4.173777	-0.913728	4.721332	7.528873	0.131404	38.376875	-7.951348	0.000000	0.005511	0.566478	2.197055	0.010235	0.753416	2.334371	0.009054	1.377336	2.334371	0.006299	1.377336	1.922423	0.005118	1.155163	1.785107	0.003149	0.877475	1.647791	0.039366	6.408117	12.219360	0.000000	0.000000	25.980582	-6.464579	-9.437964	-5.711800	-26.311073	-13.454858	95.282361	75.603814	-5.586789	15.274578	9.622565	-4.706012	162.689865	0.189316	1.349743	-64.061066	-22.710281
2.966667	-3.675694	-5.200542	66.216737	0.209617	0.890083	0.530393	11.682899	2.845926	-0.587236	19.514881	0.340599	44.276987	16.574715	0.000000	3.741343	-0.943252	5.854183	7.843031	0.136887	39.024021	-9.301233	0.000000	-0.005698	0.526001	1.986369	-0.010581	0.699581	2.110517	-0.009361	1.278919	2.110517	-0.006512	1.278919	1.738073	-0.005291	1.072621	1.613924	-0.003256	0.814776	1.489776	-0.040697	5.950230	11.047586	0.000000	0.000000	25.691241	-4.909612	-9.285389	-7.044631	-24.939025	-12.463758	92.089921	77.365613	-6.132582	14.059378	10.549197	-4.127266	163.273477	0.202593	1.486149	-61.880905	-22.594622
2.983333	-3.620632	-5.014663	65.952177	0.211312	0.887317	0.528961	12.113692	2.948527	-0.009981	20.813319	0.363261	45.377991	16.372977	0.000000	3.466030	-1.042289	6.673178	8.278269	0.144483	39.684631	-10.220446	0.000000	-0.016452	0.493471	1.808438	-0.030554	0.656316	1.921465	-0.027029	1.199825	1.921465	-0.018803	1.199825	1.582383	-0.015278	1.006286	1.469356	-0.009401	0.764386	1.356328	-0.117517	5.582240	10.057987	0.000000	0.000000	25.461201	-3.609880	-9.216332	-8.441685	-23.667669	-11.642973	88.921449	78.999528	-6.630741	12.598154	11.866665	-3.390700	163.928928	0.214958	1.602064	-59.840171	-22.470422
3.000000	-3.547988	-4.884110	65.708219	0.212647	0.884853	0.528188	12.566621	3.097992	0.546652	21.941185	0.382946	46.276167	16.093862	0.000000	3.361760	-1.212878	7.127588	8.836008	0.154217	40.351184	-10.667093	0.000000	-0.028266	0.470284	1.674393	-0.052492	0.625477	1.779042	-0.046437	1.143447	1.779042	-0.032305	1.143447	1.465094	-0.026247	0.959002	1.360444	-0.016151	0.728469	1.255795	-0.201898	5.319942	9.312470	0.000000	0.000000	25.285473	-2.622743	-9.240916	-9.934624	-22.535313	-11.040916	85.893756	80.428184	-7.088444	10.996965	13.619385	-2.469036	164.610155	0.226091	1.690372	-58.026070	-22.334392
3.016667	-3.460364	-4.819876	65.527873	0.213467	0.882784	0.528063	13.027785	3.267244	0.943652	22.853819	0.398874	46.947888	15.849702	0.000000	3.430792	-1.432073	7.329279	9.459647	0.165102	40.968165	-10.707981	0.000000	-0.039547	0.459549	1.577330	-0.073442	0.611200	1.675914	-0.064971	1.117348	1.675914	-0.045198	1.117348	1.380164	-0.036723	0.937113	1.281581	-0.022597	0.711842	1.182998	-0.282478	5.198512	8.772639	0.000000	0.000000	25.169859	-1.999653	-9.232070	-11.559925	-21.533937	-10.782418	83.194311	81.722537	-7.531837	9.739388	15.810275	-1.353757	165.113680	0.236145	1.755330	-56.573214	-22.271104
3.033333	-3.356941	-4.815847	65.394072	0.213801	0.881196	0.528607	13.464296	3.468220	1.288781	23.507424	0.410282	47.339780	15.500767	0.000000	3.669296	-1.711234	7.137072	10.149562	0.177143	41.559208	-10.190064	0.000000	-0.051718	0.461590	1.517326	-0.096046	0.613915	1.612159	-0.084968	1.122310	1.612159	-0.059109	1.122310	1.327661	-0.048026	0.941274	1.232828	-0.029552	0.715003	1.137995	-0.369418	5.221599	8.438914	0.000000	0.000000	25.094996	-1.793282	-9.210105	-13.348277	-20.727375	-10.730697	80.826566	82.596293	-8.116925	8.588575	18.451610	-0.083616	165.688436	0.243641	1.794051	-55.570524	-22.032545
3.050000	-3.242475	-4.859747	65.359138	0.213564	0.880169	0.529734	13.844417	3.671473	1.487394	23.890997	0.416977	47.443365	15.064652	0.000000	4.024112	-1.982902	7.108980	10.791386	0.188345	41.950195	-9.780561	0.000000	-0.065485	0.475938	1.484452	-0.121612	0.632998	1.577231	-0.107585	1.157197	1.577231	-0.074843	1.157197	1.298896	-0.060809	0.970534	1.206118	-0.037418	0.737229	1.113339	-0.467752	5.383911	8.256078	0.000000	0.000000	25.037228	-1.955506	-9.136832	-15.341669	-20.050423	-10.954005	78.842655	83.287300	-8.801907	7.691936	21.511290	1.304650	166.284732	0.248361	1.802590	-55.036155	-21.715543
3.066667	-3.128628	-4.947632	65.412545	0.212807	0.879721	0.531437	14.155919	3.862437	1.537360	24.002756	0.418927	47.250773	14.548927	0.000000	4.493659	-2.262745	6.914276	11.393243	0.198850	42.207446	-9.070490	0.000000	-0.080824	0.499998	1.480173	-0.150098	0.664998	1.572684	-0.132786	1.215696	1.572684	-0.092374	1.215696	1.295151	-0.075053	1.019596	1.202640	-0.046183	0.774497	1.110130	-0.577317	5.656080	8.232277	0.000000	0.000000	24.981197	-2.451303	-9.076243	-17.566472	-19.506620	-11.348047	77.196708	83.298977	-9.490448	6.820422	24.935337	2.762548	166.888212	0.249967	1.787046	-54.983162	-21.435990
3.083333	-3.024571	-5.067940	65.559061	0.211581	0.879860	0.533632	14.370930	4.022847	1.405800	23.836880	0.416032	46.774944	14.006549	0.000000	5.047321	-2.522325	6.720986	11.921982	0.208078	42.270366	-8.314124	0.000000	-0.097718	0.531250	1.500371	-0.181473	0.706562	1.594144	-0.160542	1.291681	1.594144	-0.111682	1.291681	1.312824	-0.090741	1.083325	1.219051	-0.055836	0.822906	1.125278	-0.697993	6.009606	8.344612	0.000000	0.000000	24.908825	-3.197217	-9.020465	-19.994724	-19.014042	-11.938612	75.818729	83.120096	-9.712572	5.885470	28.626609	4.265883	167.461533	0.248124	1.753889	-55.419714	-21.240139
3.100000	-2.942002	-5.204304	65.791951	0.209996	0.880555	0.536237	14.473370	4.137809	1.099285	23.410169	0.408585	46.049032	13.472351	0.000000	5.649967	-2.751285	6.467415	12.357517	0.215679	42.141858	-7.479933	0.000000	-0.116841	0.564485	1.552035	-0.216985	0.750765	1.649037	-0.191957	1.372488	1.649037	-0.133537	1.372488	1.358031	-0.108498	1.151097	1.261029	-0.066763	0.874387	1.164026	-0.834581	6.385565	8.631954	0.000000	0.000000	24.808477	-4.088835	-9.102881	-22.649144	-18.548851	-12.715317	74.689036	83.013108	-9.292625	4.764118	32.511631	5.805525	168.025664	0.242769	1.703982	-56.349332	-21.135654
3.116667	-2.889414	-5.342975	66.093999	0.208180	0.881745	0.539144	14.457429	4.203126	0.672953	22.746352	0.396999	45.107310	12.948743	0.000000	6.265818	-2.942121	6.087460	12.688459	0.221455	41.837145	-6.548850	0.000000	-0.138380	0.594413	1.639169	-0.256985	0.790569	1.741617	-0.227344	1.445255	1.741617	-0.158154	1.445255	1.434273	-0.128499	1.212126	1.331825	-0.079070	0.920745	1.229377	-0.988432	6.724115	9.116568	0.000000	0.000000	24.662024	-5.014689	-9.446890	-25.495619	-18.136642	-13.503416	73.777390	83.092016	-8.499313	3.325685	36.508430	7.379187	168.549622	0.234180	1.638207	-57.770207	-21.116666
3.133333	-2.877934	-5.474165	66.438702	0.206281	0.883340	0.542241	14.333131	4.216063	0.192226	21.882252	0.381917	43.997662	12.441943	0.000000	6.862648	-3.082914	5.552318	12.904851	0.225232	41.371503	-5.556220	0.000000	-0.162299	0.615491	1.763213	-0.301406	0.818603	1.873414	-0.266641	1.496504	1.873414	-0.185492	1.496504	1.542812	-0.150711	1.255109	1.432611	-0.092738	0.953395	1.322410	-1.159286	6.962554	9.806464	0.000000	0.000000	24.460149	-5.857607	-10.150665	-28.464338	-17.823430	-14.052702	73.064016	83.440371	-7.952130	1.606003	40.533753	8.975718	169.002345	0.223059	1.560577	-59.671757	-21.163175
3.150000	-2.916809	-5.592584	66.780248	0.204467	0.885224	0.545444	14.127850	4.180896	-0.265716	20.873146	0.364305	42.774048	11.963489	0.000000	7.421165	-3.169653	4.781983	13.012173	0.227105	40.793933	-4.471397	0.000000	-0.188390	0.623388	1.925058	-0.349860	0.829106	2.045374	-0.309506	1.515706	2.045374	-0.215311	1.515706	1.684426	-0.174939	1.271213	1.564110	-0.107646	0.965629	1.443794	-1.345653	7.051893	10.706595	0.000000	0.000000	24.183161	-6.542793	-11.281504	-31.470993	-17.600013	-14.242614	72.506137	83.912637	-7.926473	-0.238197	44.503212	10.574066	169.295715	0.210658	1.488188	-62.004678	-21.269250
3.166667	-3.025162	-5.687992	67.073365	0.202907	0.887274	0.548652	13.868958	4.094812	-0.612818	19.778454	0.345199	41.499659	11.502819	0.000000	7.916046	-3.177189	3.809769	13.002212	0.226931	40.129308	-3.384953	0.000000	-0.216136	0.614631	2.120455	-0.401386	0.817459	2.252983	-0.355090	1.494414	2.252983	-0.247022	1.494414	1.855398	-0.200704	1.253356	1.722870	-0.123500	0.952064	1.590341	-1.543837	6.952830	11.793334	0.000000	0.000000	23.841934	-6.988289	-12.752627	-34.450169	-17.436319	-13.978984	72.092705	84.614722	-8.808788	-2.163772	48.344779	12.131324	169.470507	0.197224	1.413738	-64.569077	-21.389161
